<?xml version="1.0" encoding="utf-8"?><svg version="1.1" id="Layer_1" xmlns="http://www.w3.org/2000/svg" xmlns:xlink="http://www.w3.org/1999/xlink" x="0px" y="0px" viewBox="0 0 38.28 122.88" style="enable-background:new 0 0 38.28 122.88" xml:space="preserve"><style type="text/css">.st0{fill-rule:evenodd;clip-rule:evenodd;fill:#A11F35;} .st1{fill-rule:evenodd;clip-rule:evenodd;fill:#EECD65;} .st2{fill-rule:evenodd;clip-rule:evenodd;fill:#FFE2CF;} .st3{fill-rule:evenodd;clip-rule:evenodd;fill:#F7D569;} .st4{fill-rule:evenodd;clip-rule:evenodd;fill:#E6A10A;}</style><g><path class="st0" d="M28.69,38.95c-0.9,0.01-1.55-0.39-2.02-1.11c-0.89-1.36-0.81-2.84-0.81-4.38V10.57c0-0.46-0.38-0.84-0.84-0.84 H13.15c-0.46,0-0.84,0.38-0.84,0.84v21.01v2.17c0,1.4,0.08,2.42-0.67,3.7c-0.53,0.88-1.3,1.49-2.31,1.89 c-2.16,0.91-3.91,2.25-5.29,4.02c-1.42,1.83-2.43,4.12-3.05,6.84v41.56v22.67c-0.14,3.19,0.92,5.25,3.14,6.21 c1.3,0.55,2.1,0.51,3.45,0.51h20.2c1.49,0,2.89,0.06,4.37-0.2c3.72-0.66,5.07-2.63,5.15-6.02V51.28 C36.91,44.83,33.18,41.54,28.69,38.95L28.69,38.95L28.69,38.95z"/><path d="M28.41,39.91c-0.51-0.03-0.96-0.17-1.37-0.4c-0.47-0.27-0.86-0.65-1.19-1.14l0,0c-0.98-1.49-0.97-2.99-0.96-4.55l0-0.35h0 V10.71h-11.6v23.05h0l0,0.37c0.01,1.36,0.01,2.43-0.81,3.82l0,0.01c-0.32,0.54-0.72,1-1.2,1.38c-0.46,0.37-0.98,0.67-1.57,0.91l0,0 c-1.01,0.43-1.92,0.94-2.73,1.56c-0.81,0.62-1.54,1.34-2.17,2.16v0c-0.67,0.86-1.24,1.82-1.71,2.88c-0.46,1.04-0.84,2.2-1.14,3.46 v64.88l0,0.04c-0.06,1.42,0.14,2.57,0.59,3.46c0.42,0.82,1.08,1.43,1.96,1.81c1.02,0.43,1.72,0.43,2.78,0.43l0.29,0v0h20.2 c0.31,0,0.21,0,0.74,0.01c1.17,0.01,2.3,0.02,3.46-0.19c1.62-0.29,2.7-0.83,3.35-1.64c0.66-0.81,0.95-1.95,0.99-3.42h0v-64.4 c-0.19-2.98-1.14-5.22-2.55-7.01C32.36,42.5,30.48,41.13,28.41,39.91L28.41,39.91z M28,37.81c0.19,0.11,0.42,0.16,0.68,0.16 l0.5,0.13c2.33,1.35,4.48,2.89,6.11,4.96c1.66,2.1,2.77,4.72,2.98,8.16l0,0.06v64.4l0,0.02c-0.04,1.91-0.46,3.45-1.42,4.63 c-0.97,1.19-2.42,1.96-4.53,2.33c-1.3,0.23-2.53,0.22-3.81,0.21l-20.93,0v0l-0.29,0c-1.3,0-2.17,0.01-3.55-0.58l0,0 c-1.33-0.57-2.31-1.48-2.94-2.72c-0.6-1.17-0.86-2.63-0.79-4.38l0-64.98l0.03-0.22c0.32-1.41,0.75-2.72,1.29-3.93 c0.54-1.22,1.19-2.33,1.94-3.29c0.74-0.95,1.59-1.79,2.53-2.51h0c0.95-0.73,2-1.33,3.15-1.81l0.02,0c0.41-0.16,0.77-0.37,1.08-0.62 c0.3-0.24,0.55-0.53,0.75-0.87c0.54-0.93,0.54-1.76,0.53-2.82l0-0.38h0V10.57c0-0.5,0.21-0.96,0.53-1.29 c0.33-0.33,0.79-0.53,1.29-0.53h11.87c0.5,0,0.95,0.21,1.28,0.53l0,0c0.33,0.33,0.53,0.79,0.53,1.28v22.89h0l0,0.36 c-0.01,1.26-0.01,2.47,0.65,3.48C27.63,37.53,27.8,37.7,28,37.81L28,37.81z"/><path class="st1" d="M25.91,28.42V10.57c0-0.46-0.38-0.84-0.84-0.84H13.2c-0.46,0-0.84,0.38-0.84,0.84v17.85H25.91L25.91,28.42z"/><path d="M24.93,27.44V10.71h-11.6v16.74H24.93L24.93,27.44z M26.89,10.57V29.4H11.38V10.57c0-0.5,0.21-0.96,0.53-1.29 c0.33-0.33,0.79-0.53,1.29-0.53h11.87c0.5,0,0.95,0.21,1.28,0.53l0,0C26.69,9.62,26.89,10.07,26.89,10.57L26.89,10.57z"/><path class="st2" d="M14.73,58.62h21.59v44.24H14.73c-1.43,0-2.6-1.12-2.6-2.49V61.11C12.13,59.74,13.3,58.62,14.73,58.62 L14.73,58.62L14.73,58.62z"/><path d="M15.17,0h8.21c1.06,0,2.03,0.44,2.73,1.14l0,0l0,0c0.7,0.7,1.14,1.67,1.14,2.74v6.12c0,1.08-0.88,1.96-1.96,1.96H13.25 c-1.08,0-1.96-0.88-1.96-1.96V3.88c0-1.06,0.44-2.03,1.14-2.74l0,0C13.13,0.44,14.1,0,15.17,0L15.17,0z M23.34,3.92h-8.13v4.12 h8.13V3.92L23.34,3.92z"/><path class="st3" d="M15.16,1.96h8.21c1.06,0,1.92,0.86,1.92,1.92v6.12H13.25V3.88C13.25,2.82,14.11,1.96,15.16,1.96L15.16,1.96z"/><path d="M12.86,5.73h12.83c0.87,0,1.65,0.36,2.22,0.93l0.01,0.01c0.57,0.57,0.93,1.36,0.93,2.22v3.57c0,0.87-0.36,1.66-0.93,2.23 c-0.57,0.57-1.36,0.93-2.23,0.93H12.86c-0.87,0-1.66-0.36-2.23-0.93c-0.57-0.57-0.93-1.36-0.93-2.23V8.88 c0-0.87,0.36-1.65,0.93-2.22l0.01-0.01C11.2,6.08,11.99,5.73,12.86,5.73L12.86,5.73z M24.93,9.64H13.62v2.05h11.31V9.64L24.93,9.64 z"/><path class="st4" d="M12.86,7.69h12.83c0.66,0,1.2,0.54,1.2,1.2v3.57c0,0.66-0.54,1.2-1.2,1.2H12.86c-0.66,0-1.2-0.54-1.2-1.2V8.88 C11.66,8.22,12.2,7.69,12.86,7.69L12.86,7.69z"/></g></svg>